<svg width="224" height="85" viewBox="0 0 224 85" fill="none" xmlns="http://www.w3.org/2000/svg">
<path d="M92.136 32.6H106.248V35.928H95.592V41.848H104.488V45.176H95.592V51.672H106.248V55H92.136V32.6ZM126.452 38.2V55H123.124V52.408C122.612 53.112 121.855 53.7733 120.852 54.392C119.849 55.0107 118.687 55.32 117.364 55.32C115.956 55.32 114.665 54.9467 113.492 54.2C112.34 53.4533 111.423 52.4187 110.74 51.096C110.057 49.7733 109.716 48.2587 109.716 46.552C109.716 44.8453 110.068 43.3413 110.772 42.04C111.476 40.7173 112.447 39.6933 113.684 38.968C114.921 38.2213 116.329 37.848 117.908 37.848C119.081 37.848 120.105 38.104 120.98 38.616C121.876 39.128 122.591 39.7253 123.124 40.408V38.2H126.452ZM118.132 52.28C119.156 52.28 120.052 52.0347 120.82 51.544C121.588 51.032 122.185 50.3493 122.612 49.496C123.039 48.6213 123.252 47.64 123.252 46.552C123.252 45.4853 123.039 44.5253 122.612 43.672C122.185 42.8187 121.588 42.1467 120.82 41.656C120.052 41.144 119.156 40.888 118.132 40.888C117.151 40.888 116.276 41.1333 115.508 41.624C114.74 42.1147 114.143 42.7867 113.716 43.64C113.289 44.4933 113.076 45.464 113.076 46.552C113.076 47.64 113.289 48.6213 113.716 49.496C114.143 50.3493 114.74 51.032 115.508 51.544C116.276 52.0347 117.151 52.28 118.132 52.28ZM140.75 42.616C140.153 42.0187 139.47 41.528 138.702 41.144C137.955 40.76 137.262 40.568 136.622 40.568C136.174 40.568 135.726 40.6213 135.278 40.728C134.851 40.8347 134.489 41.0373 134.19 41.336C133.891 41.6133 133.742 42.0293 133.742 42.584C133.763 43.352 134.105 43.896 134.766 44.216C135.449 44.536 136.291 44.824 137.294 45.08C138.169 45.3147 139.022 45.6133 139.854 45.976C140.686 46.3173 141.369 46.8293 141.902 47.512C142.457 48.1733 142.734 49.112 142.734 50.328C142.734 51.3733 142.435 52.2693 141.838 53.016C141.262 53.7627 140.505 54.3387 139.566 54.744C138.649 55.128 137.678 55.32 136.654 55.32C135.438 55.32 134.233 55.1067 133.038 54.68C131.865 54.232 130.862 53.4747 130.03 52.408L132.27 50.488C132.846 51.1493 133.497 51.672 134.222 52.056C134.969 52.4187 135.875 52.6 136.942 52.6C137.347 52.6 137.753 52.536 138.158 52.408C138.563 52.2587 138.905 52.0347 139.182 51.736C139.481 51.416 139.63 50.9893 139.63 50.456C139.63 49.944 139.47 49.5493 139.15 49.272C138.851 48.9733 138.446 48.7387 137.934 48.568C137.422 48.376 136.857 48.2053 136.238 48.056C135.321 47.8 134.414 47.4907 133.518 47.128C132.643 46.744 131.907 46.2107 131.31 45.528C130.734 44.824 130.446 43.8747 130.446 42.68C130.446 41.6773 130.723 40.824 131.278 40.12C131.854 39.3947 132.601 38.84 133.518 38.456C134.435 38.0507 135.417 37.848 136.462 37.848C137.465 37.848 138.553 38.0613 139.726 38.488C140.899 38.9147 141.87 39.5973 142.638 40.536L140.75 42.616ZM149.183 62.36L151.935 56.056L152.031 55.832L144.223 38.2H148.062L153.311 50.552C153.375 50.68 153.439 50.84 153.503 51.032C153.567 51.224 153.641 51.4373 153.727 51.672C153.812 51.4373 153.887 51.2133 153.951 51C154.036 50.7653 154.121 50.5413 154.207 50.328L158.591 38.2H162.495L155.583 55L152.735 62.36H149.183ZM173.696 37.848C175.19 37.848 176.523 38.2213 177.696 38.968C178.891 39.6933 179.83 40.7173 180.512 42.04C181.195 43.3413 181.536 44.8453 181.536 46.552C181.536 48.2587 181.195 49.7733 180.512 51.096C179.83 52.4187 178.902 53.4533 177.728 54.2C176.555 54.9467 175.243 55.32 173.792 55.32C172.598 55.32 171.51 55.064 170.528 54.552C169.568 54.0187 168.811 53.4213 168.256 52.76V54.904H164.96V31.32H168.256V40.632C168.747 39.928 169.483 39.288 170.464 38.712C171.446 38.136 172.523 37.848 173.696 37.848ZM173.248 40.856C172.246 40.856 171.35 41.1013 170.56 41.592C169.792 42.0827 169.184 42.7653 168.736 43.64C168.31 44.4933 168.096 45.464 168.096 46.552C168.096 47.64 168.31 48.6213 168.736 49.496C169.184 50.3493 169.792 51.032 170.56 51.544C171.35 52.056 172.246 52.312 173.248 52.312C174.251 52.312 175.136 52.056 175.904 51.544C176.672 51.032 177.27 50.3493 177.696 49.496C178.144 48.6213 178.368 47.64 178.368 46.552C178.368 45.464 178.144 44.4933 177.696 43.64C177.27 42.7653 176.672 42.0827 175.904 41.592C175.136 41.1013 174.251 40.856 173.248 40.856ZM187.325 34.552C186.578 34.552 186.023 34.36 185.661 33.976C185.298 33.592 185.117 33.0907 185.117 32.472C185.117 31.9387 185.298 31.4587 185.661 31.032C186.023 30.6053 186.578 30.392 187.325 30.392C188.071 30.392 188.626 30.584 188.989 30.968C189.351 31.352 189.533 31.8533 189.533 32.472C189.533 33.0053 189.351 33.4853 188.989 33.912C188.626 34.3387 188.071 34.552 187.325 34.552ZM189.021 55H185.725V38.2H189.021V55ZM194.023 55V31.32H197.319V55H194.023ZM202.023 55V31.32H205.319V55H202.023ZM219.719 42.616C219.121 42.0187 218.439 41.528 217.671 41.144C216.924 40.76 216.231 40.568 215.591 40.568C215.143 40.568 214.695 40.6213 214.247 40.728C213.82 40.8347 213.457 41.0373 213.159 41.336C212.86 41.6133 212.711 42.0293 212.711 42.584C212.732 43.352 213.073 43.896 213.735 44.216C214.417 44.536 215.26 44.824 216.263 45.08C217.137 45.3147 217.991 45.6133 218.823 45.976C219.655 46.3173 220.337 46.8293 220.871 47.512C221.425 48.1733 221.703 49.112 221.703 50.328C221.703 51.3733 221.404 52.2693 220.807 53.016C220.231 53.7627 219.473 54.3387 218.535 54.744C217.617 55.128 216.647 55.32 215.623 55.32C214.407 55.32 213.201 55.1067 212.007 54.68C210.833 54.232 209.831 53.4747 208.999 52.408L211.239 50.488C211.815 51.1493 212.465 51.672 213.191 52.056C213.937 52.4187 214.844 52.6 215.911 52.6C216.316 52.6 216.721 52.536 217.127 52.408C217.532 52.2587 217.873 52.0347 218.151 51.736C218.449 51.416 218.599 50.9893 218.599 50.456C218.599 49.944 218.439 49.5493 218.119 49.272C217.82 48.9733 217.415 48.7387 216.903 48.568C216.391 48.376 215.825 48.2053 215.207 48.056C214.289 47.8 213.383 47.4907 212.487 47.128C211.612 46.744 210.876 46.2107 210.279 45.528C209.703 44.824 209.415 43.8747 209.415 42.68C209.415 41.6773 209.692 40.824 210.247 40.12C210.823 39.3947 211.569 38.84 212.487 38.456C213.404 38.0507 214.385 37.848 215.431 37.848C216.433 37.848 217.521 38.0613 218.695 38.488C219.868 38.9147 220.839 39.5973 221.607 40.536L219.719 42.616Z" fill="#565656"/>
<circle cx="42.5" cy="42.5" r="42.5" fill="url(#paint0_linear)"/>
<path fill-rule="evenodd" clip-rule="evenodd" d="M43 80C63.9868 80 81 62.9868 81 42C81 34.6622 78.9202 27.8102 75.3179 22.0012L56.7414 59.6072L54.4712 64.203L52.2475 59.5845L41.1489 36.5336L32.5801 49.3867L30.2645 52.8602L28.2955 49.1791L19.2254 32.222L8.2299 57.3546C14.1288 70.6929 27.4775 80 43 80ZM5.89218 50.2235C5.30798 47.5754 5 44.8237 5 42C5 21.0132 22.0132 4 43 4C54.6219 4 65.0252 9.21727 71.9955 17.4374L54.5288 52.797L43.7525 30.4155L41.8511 26.4664L39.4199 30.1133L30.7355 43.1398L21.2045 25.3209L18.7746 20.778L16.7096 25.498L5.89218 50.2235Z" fill="#575757"/>
<defs>
<linearGradient id="paint0_linear" x1="15.5" y1="72.5" x2="74.5" y2="18" gradientUnits="userSpaceOnUse">
<stop stop-color="#FA3446"/>
<stop offset="0.969269" stop-color="#4FFF78"/>
</linearGradient>
</defs>
</svg>
